<?xml version="1.0" encoding="UTF-8" standalone="no"?>
<!-- Generator: Adobe Illustrator 16.0.0, SVG Export Plug-In . SVG Version: 6.00 Build 0)  -->

<svg
   xmlns:dc="http://purl.org/dc/elements/1.1/"
   xmlns:cc="http://creativecommons.org/ns#"
   xmlns:rdf="http://www.w3.org/1999/02/22-rdf-syntax-ns#"
   xmlns:svg="http://www.w3.org/2000/svg"
   xmlns="http://www.w3.org/2000/svg"
   xmlns:sodipodi="http://sodipodi.sourceforge.net/DTD/sodipodi-0.dtd"
   xmlns:inkscape="http://www.inkscape.org/namespaces/inkscape"
   version="1.1"
   x="0px"
   y="0px"
   width="66pt"
   height="28pt"
   viewBox="0 0 82.500005 34.999999"
   enable-background="new 0 0 371.49 121.946"
   xml:space="preserve"
   id="svg2"
   inkscape:version="0.91 r13725"
   sodipodi:docname="beta.svg"><metadata
     id="metadata60"><rdf:RDF><cc:Work
         rdf:about=""><dc:format>image/svg+xml</dc:format><dc:type
           rdf:resource="http://purl.org/dc/dcmitype/StillImage" /><dc:title></dc:title></cc:Work></rdf:RDF></metadata><defs
     id="defs58" /><sodipodi:namedview
     pagecolor="#ffffff"
     bordercolor="#666666"
     borderopacity="1"
     objecttolerance="10"
     gridtolerance="10"
     guidetolerance="10"
     inkscape:pageopacity="0"
     inkscape:pageshadow="2"
     inkscape:window-width="1048"
     inkscape:window-height="563"
     id="namedview56"
     showgrid="false"
     units="pt"
     inkscape:zoom="3.3702119"
     inkscape:cx="49.637486"
     inkscape:cy="48.115195"
     inkscape:window-x="526"
     inkscape:window-y="267"
     inkscape:window-maximized="0"
     inkscape:current-layer="Clock_pin" /><g
     id="Layer_6"
     transform="translate(0,-86.946246)" /><g
     id="Floor"
     transform="translate(0,-86.946246)" /><g
     id="Layer_2"
     transform="translate(0,-86.946246)" /><g
     id="Layer_1"
     transform="translate(0,-86.946246)" /><g
     id="Type"
     transform="translate(0,-86.946246)" /><g
     id="Clock_pin"
     transform="translate(0,-86.946246)"><rect
       x="0.13999104"
       y="86.847954"
       width="82.658997"
       height="35.561001"
       id="rect44"
       style="fill:#1b91cd" /><g
       id="g46"
       transform="translate(-288.69101,22.963957)"><path
         d="m 298.67,71.896 5.541,0 c 2.604,0 4.486,0.389 5.649,1.167 1.162,0.778 1.744,2.008 1.744,3.689 0,1.163 -0.324,2.123 -0.973,2.879 -0.649,0.756 -1.595,1.245 -2.838,1.469 l 0,0.134 c 2.979,0.511 4.468,2.076 4.468,4.696 0,1.754 -0.593,3.122 -1.778,4.106 -1.185,0.983 -2.842,1.476 -4.971,1.476 l -6.843,0 0,-19.616 z m 2.28,8.4 3.757,0 c 1.61,0 2.769,-0.253 3.476,-0.759 0.707,-0.505 1.06,-1.356 1.06,-2.556 0,-1.101 -0.394,-1.894 -1.181,-2.382 -0.787,-0.487 -2.039,-0.731 -3.757,-0.731 l -3.354,0 0,6.428 z m 0,1.932 0,7.34 4.093,0 c 1.583,0 2.775,-0.307 3.576,-0.919 0.8,-0.613 1.2,-1.572 1.2,-2.879 0,-1.216 -0.409,-2.11 -1.228,-2.683 -0.818,-0.573 -2.064,-0.859 -3.736,-0.859 l -3.905,0 z"
         id="path48"
         inkscape:connector-curvature="0"
         style="fill:#ffffff" /><path
         d="m 327.409,91.513 -10.935,0 0,-19.617 10.935,0 0,2.025 -8.654,0 0,6.32 8.132,0 0,2.013 -8.132,0 0,7.219 8.654,0 0,2.04 z"
         id="path50"
         inkscape:connector-curvature="0"
         style="fill:#ffffff" /><path
         d="m 337.795,91.513 -2.28,0 0,-17.591 -6.213,0 0,-2.025 14.706,0 0,2.025 -6.213,0 0,17.591 z"
         id="path52"
         inkscape:connector-curvature="0"
         style="fill:#ffffff" /><path
         d="m 359.29,91.513 -2.441,-6.239 -7.863,0 -2.415,6.239 -2.308,0 7.755,-19.697 1.919,0 7.716,19.697 -2.363,0 z m -3.152,-8.292 -2.281,-6.078 c -0.295,-0.77 -0.6,-1.713 -0.912,-2.831 -0.197,0.858 -0.479,1.803 -0.846,2.831 l -2.308,6.078 6.347,0 z"
         id="path54"
         inkscape:connector-curvature="0"
         style="fill:#ffffff" /></g></g></svg>