<?xml version="1.0" encoding="utf-8"?>
<!-- Generator: Adobe Illustrator 16.0.0, SVG Export Plug-In . SVG Version: 6.00 Build 0)  -->
<!DOCTYPE svg PUBLIC "-//W3C//DTD SVG 1.1//EN" "http://www.w3.org/Graphics/SVG/1.1/DTD/svg11.dtd">
<svg version="1.1" xmlns="http://www.w3.org/2000/svg" xmlns:xlink="http://www.w3.org/1999/xlink" x="0px" y="0px"
	 width="54.088px" height="49.801px" viewBox="0 0 54.088 49.801" enable-background="new 0 0 54.088 49.801" xml:space="preserve">
<g id="Layer_6">
</g>
<g id="Floor">
</g>
<g id="Layer_2">
</g>
<g id="Layer_1">
</g>
<g id="Type">
</g>
<g id="Clock_pin">
	<g>
		<path fill="none" d="M41.314,16.936c-1.848,0-3.349-1.41-3.529-3.209H17.256c-0.181,1.799-1.682,3.209-3.53,3.209
			c-1.847,0-3.348-1.41-3.528-3.209H4.953v31.066h44.184V13.727h-4.293C44.663,15.525,43.162,16.936,41.314,16.936z M20.085,39.98
			h-8.637v-8.479h8.637V39.98z M20.085,29.14h-8.637v-8.479h8.637V29.14z M31.235,39.98h-8.638v-8.479h8.638V39.98z M31.32,29.14
			h-8.638v-8.479h8.638V29.14z M42.641,39.98h-8.636v-8.479h8.636V39.98z M42.727,29.14h-8.636v-8.479h8.636V29.14z"/>
		<path fill="#939393" d="M44.879,8.718V3.563C44.879,1.597,43.283,0,41.314,0S37.75,1.597,37.75,3.563v5.154H17.291V3.563
			C17.291,1.597,15.695,0,13.726,0c-1.968,0-3.563,1.597-3.563,3.563v5.154H0v41.083h54.088V8.718H44.879z M49.137,44.793H4.953
			V13.727h5.244c0.181,1.799,1.682,3.209,3.528,3.209c1.849,0,3.35-1.41,3.53-3.209h20.529c0.181,1.799,1.682,3.209,3.529,3.209
			s3.349-1.41,3.529-3.209h4.293V44.793z"/>
		<g>
			<rect x="22.683" y="20.661" fill="#939393" width="8.638" height="8.479"/>
		</g>
		<g>
			<rect x="34.091" y="20.661" fill="#939393" width="8.636" height="8.479"/>
		</g>
		<g>
			<rect x="11.448" y="20.661" fill="#939393" width="8.637" height="8.479"/>
		</g>
		<g>
			<rect x="22.598" y="31.502" fill="#939393" width="8.638" height="8.479"/>
		</g>
		<g>
			<rect x="34.005" y="31.502" fill="#939393" width="8.636" height="8.479"/>
		</g>
		<g>
			<rect x="11.448" y="31.502" fill="#939393" width="8.637" height="8.479"/>
		</g>
	</g>
</g>
</svg>
