<?xml version="1.0" encoding="UTF-8" standalone="no"?>
<!-- Generator: Adobe Illustrator 16.0.0, SVG Export Plug-In . SVG Version: 6.00 Build 0)  -->

<svg
   xmlns:dc="http://purl.org/dc/elements/1.1/"
   xmlns:cc="http://creativecommons.org/ns#"
   xmlns:rdf="http://www.w3.org/1999/02/22-rdf-syntax-ns#"
   xmlns:svg="http://www.w3.org/2000/svg"
   xmlns="http://www.w3.org/2000/svg"
   xmlns:sodipodi="http://sodipodi.sourceforge.net/DTD/sodipodi-0.dtd"
   xmlns:inkscape="http://www.inkscape.org/namespaces/inkscape"
   version="1.1"
   x="0px"
   y="0px"
   width="17.725849"
   height="37.445251"
   viewBox="0 0 17.72585 37.445252"
   enable-background="new 0 0 36.168 37.446"
   xml:space="preserve"
   id="svg2"
   inkscape:version="0.91 r13725"
   sodipodi:docname="female.svg"><metadata
     id="metadata34"><rdf:RDF><cc:Work
         rdf:about=""><dc:format>image/svg+xml</dc:format><dc:type
           rdf:resource="http://purl.org/dc/dcmitype/StillImage" /><dc:title></dc:title></cc:Work></rdf:RDF></metadata><defs
     id="defs32" /><sodipodi:namedview
     pagecolor="#ffffff"
     bordercolor="#666666"
     borderopacity="1"
     objecttolerance="10"
     gridtolerance="10"
     guidetolerance="10"
     inkscape:pageopacity="0"
     inkscape:pageshadow="2"
     inkscape:window-width="876"
     inkscape:window-height="480"
     id="namedview30"
     showgrid="false"
     fit-margin-top="0"
     fit-margin-left="0"
     fit-margin-right="0"
     fit-margin-bottom="0"
     inkscape:zoom="6.3024089"
     inkscape:cx="-0.35779088"
     inkscape:cy="18.722251"
     inkscape:window-x="49"
     inkscape:window-y="24"
     inkscape:window-maximized="0"
     inkscape:current-layer="Clock_pin" /><g
     id="Layer_6"
     transform="translate(-18.441791,0)" /><g
     id="Floor"
     transform="translate(-18.441791,0)" /><g
     id="Layer_2"
     transform="translate(-18.441791,0)" /><g
     id="Layer_1"
     transform="translate(-18.441791,0)" /><g
     id="Type"
     transform="translate(-18.441791,0)" /><g
     id="Clock_pin"
     transform="translate(-18.441791,0)"><g
       id="g10"><circle
         cx="27.448999"
         cy="3.3469999"
         r="3.3469999"
         id="circle12"
         style="fill:#949494" /><path
         d="m 26.917,35.865 c 0.073,-5.924 0.219,-17.769 0.219,-17.769 l 0.188,0 c 0,0 0.252,11.845 0.378,17.769 0.045,2.105 3.313,2.109 3.268,0 C 30.846,29.941 30.719,24.018 30.594,18.096 30.575,17.204 29.865,16.46 28.96,16.46 c -1.152,0 -2.306,0 -3.458,0 -0.899,0 -1.624,0.744 -1.634,1.636 -0.074,5.922 -0.146,11.845 -0.219,17.769 -0.027,2.108 3.243,2.106 3.268,0 l 0,0 z"
         id="path14"
         inkscape:connector-curvature="0"
         style="fill:#949494" /><polygon
         points="33.605,26.906 21.238,26.906 24.798,11.28 30.13,11.28 "
         id="polygon16"
         style="fill:#949494" /><path
         d="m 21.67,21.052 c 1.028,-3.451 2.733,-9.177 2.733,-9.177 l 6.171,0.036 c 0,0 1.483,5.689 2.381,9.141 0.532,2.038 3.686,1.172 3.152,-0.869 -0.898,-3.451 -1.798,-6.9 -2.696,-10.352 -0.184,-0.701 -0.856,-1.199 -1.576,-1.199 -2.886,0 -5.771,0 -8.657,0 -0.737,0 -1.368,0.5 -1.576,1.199 -1.027,3.451 -2.056,6.9 -3.084,10.352 -0.603,2.025 2.552,2.883 3.152,0.869 l 0,0 z"
         id="path18"
         inkscape:connector-curvature="0"
         style="fill:#949494" /></g></g></svg>