<?xml version="1.0" encoding="UTF-8" standalone="no"?>
<!-- Generator: Adobe Illustrator 16.0.0, SVG Export Plug-In . SVG Version: 6.00 Build 0)  -->

<svg
   xmlns:dc="http://purl.org/dc/elements/1.1/"
   xmlns:cc="http://creativecommons.org/ns#"
   xmlns:rdf="http://www.w3.org/1999/02/22-rdf-syntax-ns#"
   xmlns:svg="http://www.w3.org/2000/svg"
   xmlns="http://www.w3.org/2000/svg"
   xmlns:sodipodi="http://sodipodi.sourceforge.net/DTD/sodipodi-0.dtd"
   xmlns:inkscape="http://www.inkscape.org/namespaces/inkscape"
   version="1.1"
   x="0px"
   y="0px"
   width="15.084345"
   height="37.118874"
   viewBox="0 0 15.084345 37.118874"
   enable-background="new 0 0 36.168 37.446"
   xml:space="preserve"
   id="svg2"
   inkscape:version="0.91 r13725"
   sodipodi:docname="male.svg"><metadata
     id="metadata34"><rdf:RDF><cc:Work
         rdf:about=""><dc:format>image/svg+xml</dc:format><dc:type
           rdf:resource="http://purl.org/dc/dcmitype/StillImage" /><dc:title></dc:title></cc:Work></rdf:RDF></metadata><defs
     id="defs32" /><sodipodi:namedview
     pagecolor="#ffffff"
     bordercolor="#666666"
     borderopacity="1"
     objecttolerance="10"
     gridtolerance="10"
     guidetolerance="10"
     inkscape:pageopacity="0"
     inkscape:pageshadow="2"
     inkscape:window-width="876"
     inkscape:window-height="480"
     id="namedview30"
     showgrid="false"
     fit-margin-top="0"
     fit-margin-left="0"
     fit-margin-right="0"
     fit-margin-bottom="0"
     inkscape:zoom="6.3024089"
     inkscape:cx="18.083172"
     inkscape:cy="18.395875"
     inkscape:window-x="49"
     inkscape:window-y="24"
     inkscape:window-maximized="0"
     inkscape:current-layer="Clock_pin" /><g
     id="Layer_6"
     transform="translate(-8.2761419e-4,0)" /><g
     id="Floor"
     transform="translate(-8.2761419e-4,0)" /><g
     id="Layer_2"
     transform="translate(-8.2761419e-4,0)" /><g
     id="Layer_1"
     transform="translate(-8.2761419e-4,0)" /><g
     id="Type"
     transform="translate(-8.2761419e-4,0)" /><g
     id="Clock_pin"
     transform="translate(-8.2761419e-4,0)"><g
       id="g20"><circle
         cx="7.5430002"
         cy="3.3469999"
         r="3.3469999"
         id="circle22"
         style="fill:#949494" /><path
         d="M 7.152,35.539 C 7.224,27.45 7.369,11.275 7.369,11.275 l 0.188,0 c 0,0 0.251,16.175 0.378,24.264 0.032,2.105 3.3,2.107 3.268,0 C 11.078,27.45 10.953,19.362 10.827,11.275 10.812,10.384 10.093,9.64 9.192,9.64 c -1.152,0 -2.306,0 -3.458,0 -0.896,0 -1.626,0.744 -1.634,1.635 -0.074,8.087 -0.146,16.175 -0.217,24.264 -0.019,2.107 3.249,2.106 3.269,0 l 0,0 z"
         id="path24"
         inkscape:connector-curvature="0"
         style="fill:#949494" /><rect
         x="6.3449998"
         y="11.275"
         width="2.3959999"
         height="13.833"
         id="rect26"
         style="fill:#949494" /><path
         d="M 15.084,20.044 C 14.966,16.594 14.849,13.145 14.73,9.694 14.7,8.804 14.01,8.059 13.095,8.059 c -3.701,0 -7.403,0 -11.104,0 -0.914,0 -1.604,0.745 -1.635,1.635 -0.118,3.45 -0.235,6.899 -0.354,10.35 -0.072,2.11 3.196,2.103 3.27,0 0.118,-3.45 0.297,-8.713 0.297,-8.713 l 0.219,-0.002 7.417,0 0.313,-0.008 c 0,0 0.181,5.272 0.298,8.723 0.073,2.102 3.34,2.11 3.268,0 l 0,0 z"
         id="path28"
         inkscape:connector-curvature="0"
         style="fill:#949494" /></g></g></svg>