<?xml version="1.0" encoding="utf-8"?>
<!-- Generator: Adobe Illustrator 16.0.0, SVG Export Plug-In . SVG Version: 6.00 Build 0)  -->
<!DOCTYPE svg PUBLIC "-//W3C//DTD SVG 1.1//EN" "http://www.w3.org/Graphics/SVG/1.1/DTD/svg11.dtd">
<svg version="1.1" xmlns="http://www.w3.org/2000/svg" xmlns:xlink="http://www.w3.org/1999/xlink" x="0px" y="0px" width="15.59px"
	 height="15.555px" viewBox="0 0 15.59 15.555" enable-background="new 0 0 15.59 15.555" xml:space="preserve">
<g id="Layer_6">
</g>
<g id="Floor">
</g>
<g id="Layer_2">
</g>
<g id="Layer_1">
</g>
<g id="Type">
</g>
<g id="Clock_pin">
	<g>
		<g>
			<g>
				<path fill="#36A7DE" d="M15.24,12.302l-2.407-2.407c-0.48-0.478-1.274-0.463-1.771,0.034L9.85,11.141
					c-0.076-0.042-0.156-0.087-0.239-0.133c-0.766-0.425-1.814-1.006-2.918-2.11C5.586,7.791,5.005,6.741,4.578,5.975
					C4.534,5.894,4.49,5.815,4.447,5.741l0.814-0.812l0.399-0.401c0.498-0.497,0.512-1.291,0.033-1.77L3.286,0.35
					C2.808-0.129,2.015-0.114,1.518,0.383L0.839,1.064l0.018,0.02c-0.228,0.29-0.417,0.625-0.559,0.985
					C0.168,2.413,0.087,2.741,0.049,3.07c-0.317,2.636,0.886,5.044,4.155,8.312c4.519,4.519,8.159,4.178,8.315,4.161
					c0.343-0.041,0.671-0.123,1.003-0.253c0.358-0.14,0.693-0.329,0.983-0.556l0.015,0.012l0.687-0.673
					C15.704,13.576,15.719,12.782,15.24,12.302z"/>
			</g>
		</g>
	</g>
</g>
</svg>
