<?xml version="1.0" encoding="utf-8"?>
<!-- Generator: Adobe Illustrator 16.0.0, SVG Export Plug-In . SVG Version: 6.00 Build 0)  -->
<!DOCTYPE svg PUBLIC "-//W3C//DTD SVG 1.1//EN" "http://www.w3.org/Graphics/SVG/1.1/DTD/svg11.dtd">
<svg version="1.1" xmlns="http://www.w3.org/2000/svg" xmlns:xlink="http://www.w3.org/1999/xlink" x="0px" y="0px"
	 width="15.896px" height="15.896px" viewBox="0 0 15.896 15.896" enable-background="new 0 0 15.896 15.896" xml:space="preserve">
<g id="Layer_6">
</g>
<g id="Floor">
</g>
<g id="Layer_2">
</g>
<g id="Layer_1">
</g>
<g id="Type">
</g>
<g id="Clock_pin">
	<g>
		<path fill="#939393" d="M9.477,0.149c-1.135,0.038-2.72,0.727-3.522,1.529L0.602,7.032C-0.2,7.834-0.2,9.148,0.602,9.95
			l5.346,5.344c0.8,0.802,2.115,0.802,2.918,0l5.351-5.352c0.803-0.803,1.491-2.388,1.529-3.522l0.15-4.426
			c0.038-1.134-0.859-2.031-1.994-1.993L9.477,0.149z M12.14,5.51c-0.816,0-1.478-0.661-1.478-1.476s0.661-1.476,1.478-1.476
			c0.815,0,1.476,0.661,1.476,1.476S12.955,5.51,12.14,5.51z"/>
	</g>
</g>
</svg>
